# xmcd CD database file
#
# Track frame offsets:
#	183
#	11783
#	28233
#	41733
#	55558
#	68358
#	82370
#	96833
#	111858
#	124320
#	137633
#	149808
#	168720
#	181133
#
# Disc length: 2577 seconds
#
# Revision: 0
# Processed by: cddbd v1.5.1PL0 Copyright (c) Steve Scherf et al.
# Submitted via: CDex 1.50
#
DISCID=ce0a0f0e
DTITLE=Otis Redding - The Story 3
DYEAR=1990
DGENRE=Blues
TTITLE0=Ol'Man trouble (Live Los Angeles, April 1966)
TTITLE1=Fa-fa-fa-fa-fa (Sad song) (Live Stockholm 1967)
TTITLE2=Day tripper (Live 1967)
TTITLE3=Satisfaction (Live 1967)
TTITLE4=Mave mercy on me
TTITLE5=Your mini skirt
TTITLE6=Let me make it up
TTITLE7=I've been loving you too long (Live 1967)
TTITLE8=Keep your arms ybout me
TTITLE9=Smake (Live 1967)
TTITLE10=Bring back my love
TTITLE11=Try a little tenderness (Live 1967)
TTITLE12=Your one and only man (Live Los Angeles April 1966)
TTITLE13=Don't bother my baby
EXTD=YEAR: 1990
EXTT0=
EXTT1=
EXTT2=
EXTT3=
EXTT4=
EXTT5=
EXTT6=
EXTT7=
EXTT8=
EXTT9=
EXTT10=
EXTT11=
EXTT12=
EXTT13=
PLAYORDER=
